<?xml version="1.0" encoding="utf-8"?><svg version="1.1" id="Layer_1" xmlns="http://www.w3.org/2000/svg" xmlns:xlink="http://www.w3.org/1999/xlink" x="0px" y="0px" viewBox="0 0 115.54 122.88" style="enable-background:new 0 0 115.54 122.88" xml:space="preserve"><style type="text/css">.st0{fill-rule:evenodd;clip-rule:evenodd;}</style><g><path class="st0" d="M65.43,57.69c-0.08,0.2-0.12,0.42-0.12,0.64c0,1,0.81,1.81,1.81,1.81c1,0,1.81-0.81,1.81-1.81 c0-0.29-0.07-0.56-0.19-0.8c0.79,0.09,1.59,0.26,2.39,0.52c0.34,0.11,0.7-0.12,0.8-0.5c0.1-0.39-0.1-0.79-0.44-0.91 c-1.31-0.43-2.61-0.64-3.91-0.64c-1.3,0-2.58,0.22-3.86,0.64c-0.34,0.11-0.54,0.52-0.44,0.91c0.1,0.39,0.46,0.61,0.8,0.5 C64.53,57.9,64.98,57.78,65.43,57.69L65.43,57.69L65.43,57.69L65.43,57.69z M74.14,90.4c-1.35-1.58-2.77-3.64-4.02-5.48 c-6.85,5.61-15.99,7.09-24.78-0.51c-0.06,0.08-0.12,0.16-0.17,0.25c-1.11,1.62-2.35,3.46-3.58,4.99 C47.18,119.15,70.63,119.79,74.14,90.4L74.14,90.4z M71.89,83.34c0.81,1.19,1.7,2.49,2.58,3.68c6.12,5.27,23.6,6.37,30.13,10.01 c2.08,1.16,3.97,2.64,5.48,4.64c3.78,4.98,4.1,9.19,5.47,15.3c-0.33,3.56-2.35,5.61-6.33,5.91H6.33c-3.97-0.3-5.99-2.35-6.33-5.91 c1.37-6.11,1.69-10.31,5.47-15.3c1.51-2,3.4-3.48,5.48-4.64c6.21-3.46,22.28-4.62,29.12-9.24c1.07-1.38,2.18-3.01,3.16-4.46 l0.3-0.44l0.25,0.07c-2.89-2.88-5.73-6.79-8.41-11.9c-0.02-0.1-0.03-0.2-0.03-0.3h0v-2.78l0,0c-0.15,0.02-0.3,0.03-0.45,0 c-2.77-0.41-4.26-3.8-4.62-7.04c-0.1-0.89-0.12-1.78-0.05-2.57c0.07-0.85,0.23-1.64,0.48-2.27c0.55-1.39,1.5-2.16,2.88-1.9 c0.66,0.12,1.26,0.46,1.77,1.04V54.1c-1.56-0.87-2.18-3.81-2.37-6.57l-0.05,0v-1.11c-0.02-0.68-0.02-1.32,0-1.9V28.03l26.32,10.1 l25.67-10.1v16.35l0.09,0c-0.04,0.25-0.07,0.51-0.09,0.78v2.37l-0.17-0.01c-0.18,2.62-0.52,5.43-2.44,6.62 c1.21-0.09,2.06,0.66,2.57,1.94c0.25,0.64,0.41,1.42,0.48,2.27c0.06,0.8,0.04,1.68-0.05,2.57c-0.36,3.25-1.85,6.64-4.62,7.04 c-0.43,0.06-0.36-0.12-0.36,0.42C78.93,74.01,75.91,79.4,71.89,83.34L71.89,83.34z M58.74,0l44.64,16.89l-3.49,1.39v12.1 c0.95,0.6,1.58,1.7,1.58,2.96c0,1.9-1.45,3.45-3.23,3.45c-1.79,0-3.24-1.54-3.24-3.45c0-1.26,0.64-2.36,1.59-2.96V19.59l-5.7,2.27 v8.52c0.95,0.6,1.58,1.7,1.58,2.96c0,1.9-1.45,3.45-3.24,3.45c-1.79,0-3.23-1.54-3.23-3.45c0-1.26,0.63-2.36,1.58-2.96v-7.21 L58.74,34.64L14.76,17.41L58.74,0L58.74,0z M52.07,78.92c-0.47-0.29-0.62-0.91-0.33-1.38c0.29-0.47,0.91-0.62,1.38-0.33 c1.64,1,3.23,1.48,4.77,1.46c1.53-0.01,3.04-0.51,4.54-1.46c0.47-0.3,1.09-0.16,1.39,0.31c0.3,0.47,0.16,1.09-0.31,1.39 c-1.82,1.15-3.69,1.75-5.61,1.76C55.97,80.68,54.03,80.11,52.07,78.92L52.07,78.92z M69.6,46.98c-11.05-0.31-21.81-0.35-32.25,0.25 c-0.2,0.05-0.4,0.1-0.6,0.15v23.37c14.03,26.98,35.87,18.7,42.03-2.35V47.3C75.35,47.35,72.34,47.21,69.6,46.98L69.6,46.98z M80.46,66.52v-8.43c0.36-1.53,1.03-2.32,1.79-2.46C84.88,55.14,84.46,65.94,80.46,66.52L80.46,66.52L80.46,66.52z M55.53,70.24 c-0.36-0.3-0.4-0.83-0.1-1.18c0.3-0.36,0.83-0.4,1.18-0.11c0.42,0.35,0.82,0.54,1.21,0.54c0.39,0,0.81-0.17,1.26-0.55 c0.36-0.29,0.88-0.24,1.18,0.12c0.29,0.36,0.24,0.88-0.11,1.18c-0.77,0.64-1.56,0.94-2.35,0.93C57,71.16,56.25,70.84,55.53,70.24 L55.53,70.24L55.53,70.24L55.53,70.24z M35.09,66.52v-8.43c-0.36-1.53-1.03-2.32-1.79-2.46C30.67,55.14,31.09,65.94,35.09,66.52 L35.09,66.52L35.09,66.52z M44.45,58.23c-0.34,0.13-0.7-0.07-0.82-0.46c-0.12-0.38,0.06-0.8,0.4-0.93c1.3-0.51,2.61-0.74,3.92-0.73 c1.3,0.01,2.6,0.26,3.9,0.73c0.34,0.12,0.53,0.53,0.42,0.92c-0.11,0.38-0.47,0.6-0.81,0.48c-0.43-0.16-0.86-0.28-1.29-0.39 c0.04,0.16,0.07,0.32,0.07,0.49c0,1-0.81,1.81-1.81,1.81c-1,0-1.81-0.81-1.81-1.81c0-0.25,0.05-0.48,0.14-0.69 C45.99,57.74,45.22,57.93,44.45,58.23L44.45,58.23L44.45,58.23L44.45,58.23z"/></g></svg>